# xmcd
#
# Track frame offsets: 
#        150
#        19192
#        36257
#        50740
#        73862
#        96615
#        121015
#        137832
#        158347
#        178262
#        205335
#        224745
#        242377
#        263275
#        280370
#
# Disc length: 3911 seconds
#
# Revision: 2
# Processed by: cddbd v1.5.2PL0 Copyright (c) Steve Scherf et al.
# Submitted via: ExactAudioCopy v0.99pb5
#
DISCID=e10f450f
DTITLE=Son Seals - Deluxe Edition
DYEAR=2002
DGENRE=Blues
TTITLE0=I Believ To My Soul
TTITLE1=Going Home (Where Women Got Meat On Their Bones)
TTITLE2=Bad Axe
TTITLE3=Don't Pick Me For Your Fool (Live)
TTITLE4=Buzzard Luck
TTITLE5=Telephone Angel
TTITLE6=Life All By Myself
TTITLE7=Your Love Is Like A Cancer
TTITLE8=Landlord At My Door
TTITLE9=Now That I'm Down
TTITLE10=I Can't Hold Out (Live)
TTITLE11=Before The Bullets Fly
TTITLE12=Good Woman Bad
TTITLE13=Funky Bitch (Live)
TTITLE14=Hot Sauce (Live)
EXTD=
EXTT0=
EXTT1=
EXTT2=
EXTT3=
EXTT4=
EXTT5=
EXTT6=
EXTT7=
EXTT8=
EXTT9=
EXTT10=
EXTT11=
EXTT12=
EXTT13=
EXTT14=
PLAYORDER=
